<svg width="209" height="42" viewBox="0 0 209 42" fill="none" xmlns="http://www.w3.org/2000/svg">
<g filter="url(#filter0_d_3_447)">
<mask id="path-1-outside-1_3_447" maskUnits="userSpaceOnUse" x="4.12793" y="0.855469" width="201" height="33" fill="black">
<rect fill="white" x="4.12793" y="0.855469" width="201" height="33"/>
<path d="M24.6729 18.5547C24.6729 19.4629 24.5557 20.2637 24.3213 20.957C24.0967 21.6504 23.7744 22.251 23.3545 22.7588C22.9443 23.2666 22.4561 23.6914 21.8896 24.0332C21.3232 24.375 20.7031 24.6484 20.0293 24.8535C19.3652 25.0586 18.6572 25.2051 17.9053 25.293C17.1631 25.3809 16.4062 25.4248 15.6348 25.4248C14.6191 25.4248 13.6816 25.3467 12.8223 25.1904C11.9629 25.0439 11.1523 24.8096 10.3906 24.4873C9.63867 24.1553 8.91113 23.7305 8.20801 23.2129C7.51465 22.6953 6.82129 22.0654 6.12793 21.3232L9.11621 18.291C9.38965 18.9648 9.76562 19.5898 10.2441 20.166C10.7227 20.7324 11.2451 21.2207 11.8115 21.6309C12.3877 22.041 12.9834 22.3633 13.5986 22.5977C14.2139 22.832 14.7949 22.9492 15.3418 22.9492C15.9863 22.9492 16.5918 22.9053 17.1582 22.8174C17.7246 22.7197 18.2178 22.5635 18.6377 22.3486C19.0576 22.1338 19.3848 21.8506 19.6191 21.499C19.8633 21.1377 19.9854 20.6885 19.9854 20.1514C19.9854 19.7412 19.8926 19.3896 19.707 19.0967C19.5215 18.8037 19.2773 18.5547 18.9746 18.3496C18.6816 18.1348 18.3447 17.9541 17.9639 17.8076C17.583 17.6611 17.1924 17.5391 16.792 17.4414C16.4014 17.334 16.0156 17.2412 15.6348 17.1631C15.2539 17.0752 14.917 16.9873 14.624 16.8994C14.0479 16.7334 13.4473 16.5576 12.8223 16.3721C12.1973 16.1768 11.582 15.957 10.9766 15.7129C10.3711 15.4688 9.79492 15.1904 9.24805 14.8779C8.71094 14.5557 8.2373 14.1797 7.82715 13.75C7.41699 13.3105 7.08984 12.8076 6.8457 12.2412C6.60156 11.665 6.47949 11.0059 6.47949 10.2637C6.47949 9.375 6.58691 8.58887 6.80176 7.90527C7.02637 7.21191 7.33887 6.61133 7.73926 6.10352C8.13965 5.5957 8.61328 5.1709 9.16016 4.8291C9.70703 4.47754 10.3076 4.19922 10.9619 3.99414C11.6162 3.7793 12.3096 3.62793 13.042 3.54004C13.7842 3.44238 14.541 3.39355 15.3125 3.39355C16.3672 3.39355 17.3242 3.49121 18.1836 3.68652C19.0527 3.88184 19.8535 4.16016 20.5859 4.52148C21.3184 4.88281 21.9873 5.31738 22.5928 5.8252C23.208 6.32324 23.7842 6.87988 24.3213 7.49512L21.333 10.5273C21.0986 9.82422 20.7715 9.18945 20.3516 8.62305C19.9414 8.05664 19.4824 7.57324 18.9746 7.17285C18.4668 6.7627 17.9346 6.4502 17.3779 6.23535C16.8213 6.01074 16.2842 5.89844 15.7666 5.89844C15.0928 5.89844 14.4727 5.94727 13.9062 6.04492C13.3398 6.13281 12.8516 6.28418 12.4414 6.49902C12.041 6.7041 11.7285 6.9873 11.5039 7.34863C11.2793 7.7002 11.167 8.13965 11.167 8.66699C11.167 9.08691 11.25 9.44336 11.416 9.73633C11.582 10.0293 11.8018 10.2783 12.0752 10.4834C12.3584 10.6885 12.6758 10.8594 13.0273 10.9961C13.3789 11.123 13.7402 11.2354 14.1113 11.333C14.4922 11.4307 14.8633 11.5186 15.2246 11.5967C15.5957 11.665 15.9326 11.7432 16.2354 11.8311C16.8213 11.9971 17.4365 12.1729 18.0811 12.3584C18.7256 12.5439 19.3604 12.7637 19.9854 13.0176C20.6104 13.2617 21.2061 13.5449 21.7725 13.8672C22.3389 14.1895 22.8369 14.5752 23.2666 15.0244C23.6963 15.4639 24.0381 15.9766 24.292 16.5625C24.5459 17.1387 24.6729 17.8027 24.6729 18.5547Z"/>
<path d="M53.9258 15.127C53.9258 16.2891 53.7891 17.5 53.5156 18.7598C53.2422 20.0195 52.8564 21.25 52.3584 22.4512C51.8701 23.6426 51.2793 24.7705 50.5859 25.835C49.8926 26.8994 49.1211 27.8223 48.2715 28.6035L46.4111 27.5928C46.6943 27.085 46.9531 26.5137 47.1875 25.8789C47.4219 25.2441 47.6367 24.5752 47.832 23.8721C48.0273 23.1689 48.1982 22.4463 48.3447 21.7041C48.4912 20.9619 48.6133 20.2246 48.7109 19.4922C48.8184 18.75 48.8965 18.0322 48.9453 17.3389C48.9941 16.6455 49.0186 15.9961 49.0186 15.3906C49.0186 15.0488 49.0088 14.6777 48.9893 14.2773C48.9697 13.877 48.9258 13.4766 48.8574 13.0762C48.7988 12.6758 48.7061 12.2949 48.5791 11.9336C48.4521 11.5625 48.2764 11.2354 48.0518 10.9521C47.8369 10.6592 47.5635 10.4297 47.2314 10.2637C46.9092 10.0879 46.5186 10 46.0596 10C45.6104 10 45.2246 10.1221 44.9023 10.3662C44.5898 10.6006 44.3213 10.9082 44.0967 11.2891C43.8721 11.6699 43.6914 12.0996 43.5547 12.5781C43.4277 13.0566 43.3301 13.54 43.2617 14.0283C43.1934 14.5068 43.1445 14.9658 43.1152 15.4053C43.0957 15.8447 43.0859 16.2158 43.0859 16.5186V25H38.1494V17.1191C38.1494 16.7773 38.1543 16.3672 38.1641 15.8887C38.1738 15.4004 38.1592 14.8926 38.1201 14.3652C38.0908 13.8379 38.0273 13.3154 37.9297 12.7979C37.8418 12.2705 37.6953 11.8018 37.4902 11.3916C37.2949 10.9814 37.0264 10.6494 36.6846 10.3955C36.3428 10.1318 35.9131 10 35.3955 10C34.9561 10 34.585 10.1221 34.2822 10.3662C33.9893 10.6104 33.7402 10.9277 33.5352 11.3184C33.3398 11.6992 33.1836 12.1338 33.0664 12.6221C32.959 13.1006 32.876 13.584 32.8174 14.0723C32.7686 14.5508 32.7393 15.0098 32.7295 15.4492C32.7197 15.8789 32.7148 16.2354 32.7148 16.5186V25H27.749V8.08105H29.6533L31.4697 12.0215C31.8799 10.6543 32.5244 9.58984 33.4033 8.82812C34.292 8.05664 35.4688 7.6709 36.9336 7.6709C38.252 7.6709 39.3457 7.94434 40.2148 8.49121C41.084 9.03809 41.7676 9.92676 42.2656 11.1572C42.5488 10.6201 42.8613 10.1367 43.2031 9.70703C43.5547 9.27734 43.9404 8.91113 44.3604 8.6084C44.79 8.30566 45.2637 8.07617 45.7812 7.91992C46.2988 7.75391 46.8701 7.6709 47.4951 7.6709C48.6475 7.6709 49.6289 7.86133 50.4395 8.24219C51.2598 8.61328 51.9287 9.13086 52.4463 9.79492C52.9639 10.459 53.3398 11.25 53.5742 12.168C53.8086 13.0762 53.9258 14.0625 53.9258 15.127Z"/>
<path d="M74.2578 25H69.3066V22.9785C68.7207 23.7793 68.0127 24.375 67.1826 24.7656C66.3623 25.1465 65.459 25.3369 64.4727 25.3369C63.1836 25.3369 62.0312 25.1074 61.0156 24.6484C60 24.1895 59.1406 23.5645 58.4375 22.7734C57.7344 21.9727 57.1973 21.0352 56.8262 19.9609C56.4551 18.8867 56.2695 17.7344 56.2695 16.5039C56.2695 15.2734 56.4551 14.1211 56.8262 13.0469C57.1973 11.9727 57.7344 11.04 58.4375 10.249C59.1406 9.44824 60 8.81836 61.0156 8.35938C62.0312 7.90039 63.1836 7.6709 64.4727 7.6709C65.127 7.6709 65.7471 7.76855 66.333 7.96387C66.9287 8.15918 67.4707 8.4375 67.959 8.79883C68.457 9.15039 68.8916 9.58008 69.2627 10.0879C69.6436 10.5859 69.9414 11.1426 70.1562 11.7578L72.3535 8.08105H74.2578V25ZM69.2773 16.5039C69.2773 16.0645 69.2529 15.6006 69.2041 15.1123C69.165 14.624 69.0918 14.1406 68.9844 13.6621C68.877 13.1836 68.7256 12.7295 68.5303 12.2998C68.3447 11.8604 68.1006 11.4746 67.7979 11.1426C67.5049 10.8008 67.1484 10.5322 66.7285 10.3369C66.3086 10.1416 65.8203 10.0439 65.2637 10.0439C64.707 10.0439 64.2236 10.1465 63.8135 10.3516C63.4033 10.5469 63.0518 10.8154 62.7588 11.1572C62.4658 11.4893 62.2217 11.875 62.0264 12.3145C61.8408 12.7539 61.6943 13.2129 61.5869 13.6914C61.4795 14.1699 61.4014 14.6533 61.3525 15.1416C61.3135 15.6201 61.2939 16.0742 61.2939 16.5039C61.2939 16.9336 61.3135 17.3926 61.3525 17.8809C61.4014 18.3691 61.4795 18.8525 61.5869 19.3311C61.6943 19.8096 61.8408 20.2686 62.0264 20.708C62.2217 21.1475 62.4658 21.5381 62.7588 21.8799C63.0518 22.2119 63.4033 22.4805 63.8135 22.6855C64.2236 22.8809 64.707 22.9785 65.2637 22.9785C65.7715 22.9785 66.2207 22.876 66.6113 22.6709C67.0117 22.4561 67.3584 22.1729 67.6514 21.8213C67.9541 21.4697 68.208 21.0693 68.4131 20.6201C68.6182 20.1709 68.7842 19.707 68.9111 19.2285C69.0381 18.75 69.1309 18.2764 69.1895 17.8076C69.248 17.3291 69.2773 16.8945 69.2773 16.5039Z"/>
<path d="M92.7881 9.5752L90.0049 14.1895C89.8877 13.7988 89.7363 13.3594 89.5508 12.8711C89.3652 12.3828 89.1357 11.9287 88.8623 11.5088C88.5889 11.0791 88.2617 10.7227 87.8809 10.4395C87.5 10.1465 87.0605 10 86.5625 10C86.1035 10 85.7031 10.1172 85.3613 10.3516C85.0293 10.5859 84.7461 10.8936 84.5117 11.2744C84.2773 11.6455 84.082 12.0703 83.9258 12.5488C83.7793 13.0176 83.6621 13.4961 83.5742 13.9844C83.4961 14.4629 83.4424 14.9268 83.4131 15.376C83.3838 15.8154 83.3691 16.1963 83.3691 16.5186V25H78.4033V8.08105H80.3076L82.3145 12.0215C82.5879 11.3867 82.9004 10.8057 83.252 10.2783C83.6035 9.74121 84.0088 9.28223 84.4678 8.90137C84.9268 8.51074 85.4443 8.20801 86.0205 7.99316C86.6064 7.77832 87.2656 7.6709 87.998 7.6709C88.3789 7.6709 88.8037 7.70508 89.2725 7.77344C89.7412 7.83203 90.2002 7.93945 90.6494 8.0957C91.0986 8.24219 91.5137 8.4375 91.8945 8.68164C92.2754 8.92578 92.5732 9.22363 92.7881 9.5752Z"/>
<path d="M101.24 25H96.2744V10.0439H93.1982V8.08105H96.2744V1.85547H101.24V8.08105H106.367V10.0439H101.24V25Z"/>
<path d="M137.568 14.9072V15.1855C137.549 16.0059 137.461 16.8555 137.305 17.7344C137.158 18.6133 136.948 19.4922 136.675 20.3711C136.401 21.25 136.074 22.1191 135.693 22.9785C135.312 23.8379 134.883 24.6582 134.404 25.4395C133.936 26.2305 133.428 26.9678 132.881 27.6514C132.334 28.3447 131.758 28.9551 131.152 29.4824L128.97 28.2227C129.312 27.6465 129.619 27.0166 129.893 26.333C130.176 25.6592 130.43 24.9512 130.654 24.209C130.879 23.4668 131.069 22.7051 131.226 21.9238C131.392 21.1426 131.528 20.3662 131.636 19.5947C131.743 18.8232 131.821 18.0664 131.87 17.3242C131.929 16.5723 131.958 15.8594 131.958 15.1855C131.958 14.6582 131.953 14.0625 131.943 13.3984C131.943 12.7246 131.904 12.041 131.826 11.3477C131.758 10.6543 131.641 9.98047 131.475 9.32617C131.309 8.66211 131.06 8.07129 130.728 7.55371C130.405 7.03613 129.985 6.62109 129.468 6.30859C128.96 5.99609 128.325 5.83984 127.563 5.83984C126.89 5.83984 126.309 5.95703 125.82 6.19141C125.342 6.41602 124.932 6.72363 124.59 7.11426C124.258 7.49512 123.989 7.93945 123.784 8.44727C123.589 8.95508 123.433 9.49219 123.315 10.0586C123.208 10.6152 123.135 11.1816 123.096 11.7578C123.066 12.3242 123.052 12.8613 123.052 13.3691V17.4561H129.365V19.873H123.052V25H117.236V14.2773C117.236 12.7441 117.48 11.3184 117.969 10C118.457 8.68164 119.146 7.53906 120.034 6.57227C120.933 5.5957 122.007 4.83398 123.257 4.28711C124.517 3.73047 125.918 3.45215 127.461 3.45215C128.506 3.45215 129.482 3.60352 130.391 3.90625C131.309 4.19922 132.144 4.60938 132.896 5.13672C133.647 5.6543 134.316 6.27441 134.902 6.99707C135.498 7.70996 135.991 8.49121 136.382 9.34082C136.782 10.1904 137.085 11.0889 137.29 12.0361C137.495 12.9834 137.588 13.9404 137.568 14.9072Z"/>
<path d="M157.93 22.9639C157.93 24.3115 157.729 25.5811 157.329 26.7725C156.929 27.9639 156.348 29.0039 155.586 29.8926C154.824 30.791 153.887 31.499 152.773 32.0166C151.67 32.5439 150.41 32.8076 148.994 32.8076C148.213 32.8076 147.422 32.7197 146.621 32.5439C145.83 32.3682 145.078 32.0947 144.365 31.7236C143.662 31.3623 143.027 30.8984 142.461 30.332C141.904 29.7754 141.465 29.1162 141.143 28.3545L143.281 27.5488C143.467 28.0273 143.706 28.4668 143.999 28.8672C144.302 29.2676 144.648 29.6094 145.039 29.8926C145.43 30.1855 145.859 30.4102 146.328 30.5664C146.797 30.7324 147.29 30.8154 147.808 30.8154C148.784 30.8154 149.6 30.6152 150.254 30.2148C150.918 29.8145 151.45 29.292 151.851 28.6475C152.251 28.0029 152.539 27.2705 152.715 26.4502C152.891 25.6396 152.979 24.8145 152.979 23.9746V22.9785C152.393 23.7793 151.685 24.375 150.854 24.7656C150.034 25.1465 149.131 25.3369 148.145 25.3369C146.855 25.3369 145.703 25.1074 144.688 24.6484C143.672 24.1895 142.812 23.5645 142.109 22.7734C141.406 21.9727 140.869 21.0352 140.498 19.9609C140.127 18.8867 139.941 17.7344 139.941 16.5039C139.941 15.2734 140.127 14.1211 140.498 13.0469C140.869 11.9727 141.406 11.04 142.109 10.249C142.812 9.44824 143.672 8.81836 144.688 8.35938C145.703 7.90039 146.855 7.6709 148.145 7.6709C148.799 7.6709 149.419 7.76855 150.005 7.96387C150.601 8.15918 151.143 8.4375 151.631 8.79883C152.129 9.15039 152.563 9.58008 152.935 10.0879C153.315 10.5859 153.613 11.1426 153.828 11.7578L156.025 8.08105H157.93V22.9639ZM152.949 16.5039C152.949 16.0645 152.925 15.6006 152.876 15.1123C152.837 14.624 152.764 14.1406 152.656 13.6621C152.549 13.1836 152.397 12.7295 152.202 12.2998C152.017 11.8604 151.772 11.4746 151.47 11.1426C151.177 10.8008 150.82 10.5322 150.4 10.3369C149.98 10.1416 149.492 10.0439 148.936 10.0439C148.379 10.0439 147.896 10.1465 147.485 10.3516C147.075 10.5469 146.724 10.8154 146.431 11.1572C146.138 11.4893 145.894 11.875 145.698 12.3145C145.513 12.7539 145.366 13.2129 145.259 13.6914C145.151 14.1699 145.073 14.6533 145.024 15.1416C144.985 15.6201 144.966 16.0742 144.966 16.5039C144.966 16.9336 144.985 17.3926 145.024 17.8809C145.073 18.3691 145.151 18.8525 145.259 19.3311C145.366 19.8096 145.513 20.2686 145.698 20.708C145.894 21.1475 146.138 21.5381 146.431 21.8799C146.724 22.2119 147.075 22.4805 147.485 22.6855C147.896 22.8809 148.379 22.9785 148.936 22.9785C149.443 22.9785 149.893 22.876 150.283 22.6709C150.684 22.4561 151.03 22.1729 151.323 21.8213C151.626 21.4697 151.88 21.0693 152.085 20.6201C152.29 20.1709 152.456 19.707 152.583 19.2285C152.71 18.75 152.803 18.2764 152.861 17.8076C152.92 17.3291 152.949 16.8945 152.949 16.5039Z"/>
<path d="M176.46 9.5752L173.677 14.1895C173.56 13.7988 173.408 13.3594 173.223 12.8711C173.037 12.3828 172.808 11.9287 172.534 11.5088C172.261 11.0791 171.934 10.7227 171.553 10.4395C171.172 10.1465 170.732 10 170.234 10C169.775 10 169.375 10.1172 169.033 10.3516C168.701 10.5859 168.418 10.8936 168.184 11.2744C167.949 11.6455 167.754 12.0703 167.598 12.5488C167.451 13.0176 167.334 13.4961 167.246 13.9844C167.168 14.4629 167.114 14.9268 167.085 15.376C167.056 15.8154 167.041 16.1963 167.041 16.5186V25H162.075V8.08105H163.979L165.986 12.0215C166.26 11.3867 166.572 10.8057 166.924 10.2783C167.275 9.74121 167.681 9.28223 168.14 8.90137C168.599 8.51074 169.116 8.20801 169.692 7.99316C170.278 7.77832 170.938 7.6709 171.67 7.6709C172.051 7.6709 172.476 7.70508 172.944 7.77344C173.413 7.83203 173.872 7.93945 174.321 8.0957C174.771 8.24219 175.186 8.4375 175.566 8.68164C175.947 8.92578 176.245 9.22363 176.46 9.5752Z"/>
<path d="M195.972 16.5039C195.972 17.3828 195.854 18.208 195.62 18.9795C195.386 19.751 195.059 20.4639 194.639 21.1182C194.229 21.7725 193.73 22.3633 193.145 22.8906C192.559 23.4082 191.914 23.8477 191.211 24.209C190.518 24.5703 189.771 24.8486 188.97 25.0439C188.179 25.2393 187.363 25.3369 186.523 25.3369C185.684 25.3369 184.868 25.2393 184.077 25.0439C183.286 24.8486 182.539 24.5703 181.836 24.209C181.143 23.8477 180.503 23.4082 179.917 22.8906C179.331 22.3633 178.828 21.7725 178.408 21.1182C177.998 20.4639 177.676 19.751 177.441 18.9795C177.207 18.1982 177.09 17.373 177.09 16.5039C177.09 15.6348 177.207 14.8145 177.441 14.043C177.676 13.2617 177.998 12.5439 178.408 11.8896C178.828 11.2354 179.331 10.6494 179.917 10.1318C180.503 9.60449 181.143 9.16016 181.836 8.79883C182.539 8.4375 183.286 8.15918 184.077 7.96387C184.868 7.76855 185.684 7.6709 186.523 7.6709C187.363 7.6709 188.179 7.76855 188.97 7.96387C189.771 8.15918 190.518 8.4375 191.211 8.79883C191.914 9.16016 192.559 9.60449 193.145 10.1318C193.73 10.6494 194.229 11.2354 194.639 11.8896C195.059 12.5439 195.386 13.2617 195.62 14.043C195.854 14.8145 195.972 15.6348 195.972 16.5039ZM190.933 16.5039C190.933 16.0352 190.903 15.542 190.845 15.0244C190.796 14.4971 190.708 13.9844 190.581 13.4863C190.454 12.9785 190.278 12.4951 190.054 12.0361C189.839 11.5674 189.57 11.1621 189.248 10.8203C188.926 10.4688 188.54 10.1904 188.091 9.98535C187.642 9.77051 187.119 9.66309 186.523 9.66309C185.957 9.66309 185.454 9.77051 185.015 9.98535C184.575 10.2002 184.189 10.4883 183.857 10.8496C183.535 11.2012 183.262 11.6113 183.037 12.0801C182.822 12.5488 182.646 13.0371 182.51 13.5449C182.373 14.043 182.275 14.5508 182.217 15.0684C182.158 15.5762 182.129 16.0547 182.129 16.5039C182.129 16.9531 182.158 17.4365 182.217 17.9541C182.275 18.4619 182.373 18.9697 182.51 19.4775C182.646 19.9854 182.822 20.4736 183.037 20.9424C183.262 21.4014 183.535 21.8115 183.857 22.1729C184.189 22.5244 184.575 22.8076 185.015 23.0225C185.454 23.2373 185.957 23.3447 186.523 23.3447C187.109 23.3447 187.627 23.2422 188.076 23.0371C188.525 22.8223 188.911 22.5391 189.233 22.1875C189.565 21.8359 189.839 21.4307 190.054 20.9717C190.269 20.5127 190.439 20.0293 190.566 19.5215C190.703 19.0137 190.796 18.501 190.845 17.9834C190.903 17.4658 190.933 16.9727 190.933 16.5039Z"/>
<path d="M203.589 22.8027C203.589 23.1738 203.521 23.5254 203.384 23.8574C203.247 24.1797 203.057 24.4629 202.812 24.707C202.568 24.9414 202.285 25.127 201.963 25.2637C201.641 25.4102 201.294 25.4834 200.923 25.4834C200.552 25.4834 200.205 25.4102 199.883 25.2637C199.561 25.127 199.277 24.9414 199.033 24.707C198.789 24.4629 198.599 24.1797 198.462 23.8574C198.325 23.5254 198.257 23.1738 198.257 22.8027C198.257 22.4414 198.325 22.0996 198.462 21.7773C198.599 21.4453 198.789 21.1621 199.033 20.9277C199.277 20.6836 199.561 20.4932 199.883 20.3564C200.205 20.21 200.552 20.1367 200.923 20.1367C201.294 20.1367 201.641 20.21 201.963 20.3564C202.285 20.4932 202.568 20.6836 202.812 20.9277C203.057 21.1621 203.247 21.4453 203.384 21.7773C203.521 22.0996 203.589 22.4414 203.589 22.8027Z"/>
</mask>
<path d="M24.6729 18.5547C24.6729 19.4629 24.5557 20.2637 24.3213 20.957C24.0967 21.6504 23.7744 22.251 23.3545 22.7588C22.9443 23.2666 22.4561 23.6914 21.8896 24.0332C21.3232 24.375 20.7031 24.6484 20.0293 24.8535C19.3652 25.0586 18.6572 25.2051 17.9053 25.293C17.1631 25.3809 16.4062 25.4248 15.6348 25.4248C14.6191 25.4248 13.6816 25.3467 12.8223 25.1904C11.9629 25.0439 11.1523 24.8096 10.3906 24.4873C9.63867 24.1553 8.91113 23.7305 8.20801 23.2129C7.51465 22.6953 6.82129 22.0654 6.12793 21.3232L9.11621 18.291C9.38965 18.9648 9.76562 19.5898 10.2441 20.166C10.7227 20.7324 11.2451 21.2207 11.8115 21.6309C12.3877 22.041 12.9834 22.3633 13.5986 22.5977C14.2139 22.832 14.7949 22.9492 15.3418 22.9492C15.9863 22.9492 16.5918 22.9053 17.1582 22.8174C17.7246 22.7197 18.2178 22.5635 18.6377 22.3486C19.0576 22.1338 19.3848 21.8506 19.6191 21.499C19.8633 21.1377 19.9854 20.6885 19.9854 20.1514C19.9854 19.7412 19.8926 19.3896 19.707 19.0967C19.5215 18.8037 19.2773 18.5547 18.9746 18.3496C18.6816 18.1348 18.3447 17.9541 17.9639 17.8076C17.583 17.6611 17.1924 17.5391 16.792 17.4414C16.4014 17.334 16.0156 17.2412 15.6348 17.1631C15.2539 17.0752 14.917 16.9873 14.624 16.8994C14.0479 16.7334 13.4473 16.5576 12.8223 16.3721C12.1973 16.1768 11.582 15.957 10.9766 15.7129C10.3711 15.4688 9.79492 15.1904 9.24805 14.8779C8.71094 14.5557 8.2373 14.1797 7.82715 13.75C7.41699 13.3105 7.08984 12.8076 6.8457 12.2412C6.60156 11.665 6.47949 11.0059 6.47949 10.2637C6.47949 9.375 6.58691 8.58887 6.80176 7.90527C7.02637 7.21191 7.33887 6.61133 7.73926 6.10352C8.13965 5.5957 8.61328 5.1709 9.16016 4.8291C9.70703 4.47754 10.3076 4.19922 10.9619 3.99414C11.6162 3.7793 12.3096 3.62793 13.042 3.54004C13.7842 3.44238 14.541 3.39355 15.3125 3.39355C16.3672 3.39355 17.3242 3.49121 18.1836 3.68652C19.0527 3.88184 19.8535 4.16016 20.5859 4.52148C21.3184 4.88281 21.9873 5.31738 22.5928 5.8252C23.208 6.32324 23.7842 6.87988 24.3213 7.49512L21.333 10.5273C21.0986 9.82422 20.7715 9.18945 20.3516 8.62305C19.9414 8.05664 19.4824 7.57324 18.9746 7.17285C18.4668 6.7627 17.9346 6.4502 17.3779 6.23535C16.8213 6.01074 16.2842 5.89844 15.7666 5.89844C15.0928 5.89844 14.4727 5.94727 13.9062 6.04492C13.3398 6.13281 12.8516 6.28418 12.4414 6.49902C12.041 6.7041 11.7285 6.9873 11.5039 7.34863C11.2793 7.7002 11.167 8.13965 11.167 8.66699C11.167 9.08691 11.25 9.44336 11.416 9.73633C11.582 10.0293 11.8018 10.2783 12.0752 10.4834C12.3584 10.6885 12.6758 10.8594 13.0273 10.9961C13.3789 11.123 13.7402 11.2354 14.1113 11.333C14.4922 11.4307 14.8633 11.5186 15.2246 11.5967C15.5957 11.665 15.9326 11.7432 16.2354 11.8311C16.8213 11.9971 17.4365 12.1729 18.0811 12.3584C18.7256 12.5439 19.3604 12.7637 19.9854 13.0176C20.6104 13.2617 21.2061 13.5449 21.7725 13.8672C22.3389 14.1895 22.8369 14.5752 23.2666 15.0244C23.6963 15.4639 24.0381 15.9766 24.292 16.5625C24.5459 17.1387 24.6729 17.8027 24.6729 18.5547Z" fill="white"/>
<path d="M53.9258 15.127C53.9258 16.2891 53.7891 17.5 53.5156 18.7598C53.2422 20.0195 52.8564 21.25 52.3584 22.4512C51.8701 23.6426 51.2793 24.7705 50.5859 25.835C49.8926 26.8994 49.1211 27.8223 48.2715 28.6035L46.4111 27.5928C46.6943 27.085 46.9531 26.5137 47.1875 25.8789C47.4219 25.2441 47.6367 24.5752 47.832 23.8721C48.0273 23.1689 48.1982 22.4463 48.3447 21.7041C48.4912 20.9619 48.6133 20.2246 48.7109 19.4922C48.8184 18.75 48.8965 18.0322 48.9453 17.3389C48.9941 16.6455 49.0186 15.9961 49.0186 15.3906C49.0186 15.0488 49.0088 14.6777 48.9893 14.2773C48.9697 13.877 48.9258 13.4766 48.8574 13.0762C48.7988 12.6758 48.7061 12.2949 48.5791 11.9336C48.4521 11.5625 48.2764 11.2354 48.0518 10.9521C47.8369 10.6592 47.5635 10.4297 47.2314 10.2637C46.9092 10.0879 46.5186 10 46.0596 10C45.6104 10 45.2246 10.1221 44.9023 10.3662C44.5898 10.6006 44.3213 10.9082 44.0967 11.2891C43.8721 11.6699 43.6914 12.0996 43.5547 12.5781C43.4277 13.0566 43.3301 13.54 43.2617 14.0283C43.1934 14.5068 43.1445 14.9658 43.1152 15.4053C43.0957 15.8447 43.0859 16.2158 43.0859 16.5186V25H38.1494V17.1191C38.1494 16.7773 38.1543 16.3672 38.1641 15.8887C38.1738 15.4004 38.1592 14.8926 38.1201 14.3652C38.0908 13.8379 38.0273 13.3154 37.9297 12.7979C37.8418 12.2705 37.6953 11.8018 37.4902 11.3916C37.2949 10.9814 37.0264 10.6494 36.6846 10.3955C36.3428 10.1318 35.9131 10 35.3955 10C34.9561 10 34.585 10.1221 34.2822 10.3662C33.9893 10.6104 33.7402 10.9277 33.5352 11.3184C33.3398 11.6992 33.1836 12.1338 33.0664 12.6221C32.959 13.1006 32.876 13.584 32.8174 14.0723C32.7686 14.5508 32.7393 15.0098 32.7295 15.4492C32.7197 15.8789 32.7148 16.2354 32.7148 16.5186V25H27.749V8.08105H29.6533L31.4697 12.0215C31.8799 10.6543 32.5244 9.58984 33.4033 8.82812C34.292 8.05664 35.4688 7.6709 36.9336 7.6709C38.252 7.6709 39.3457 7.94434 40.2148 8.49121C41.084 9.03809 41.7676 9.92676 42.2656 11.1572C42.5488 10.6201 42.8613 10.1367 43.2031 9.70703C43.5547 9.27734 43.9404 8.91113 44.3604 8.6084C44.79 8.30566 45.2637 8.07617 45.7812 7.91992C46.2988 7.75391 46.8701 7.6709 47.4951 7.6709C48.6475 7.6709 49.6289 7.86133 50.4395 8.24219C51.2598 8.61328 51.9287 9.13086 52.4463 9.79492C52.9639 10.459 53.3398 11.25 53.5742 12.168C53.8086 13.0762 53.9258 14.0625 53.9258 15.127Z" fill="white"/>
<path d="M74.2578 25H69.3066V22.9785C68.7207 23.7793 68.0127 24.375 67.1826 24.7656C66.3623 25.1465 65.459 25.3369 64.4727 25.3369C63.1836 25.3369 62.0312 25.1074 61.0156 24.6484C60 24.1895 59.1406 23.5645 58.4375 22.7734C57.7344 21.9727 57.1973 21.0352 56.8262 19.9609C56.4551 18.8867 56.2695 17.7344 56.2695 16.5039C56.2695 15.2734 56.4551 14.1211 56.8262 13.0469C57.1973 11.9727 57.7344 11.04 58.4375 10.249C59.1406 9.44824 60 8.81836 61.0156 8.35938C62.0312 7.90039 63.1836 7.6709 64.4727 7.6709C65.127 7.6709 65.7471 7.76855 66.333 7.96387C66.9287 8.15918 67.4707 8.4375 67.959 8.79883C68.457 9.15039 68.8916 9.58008 69.2627 10.0879C69.6436 10.5859 69.9414 11.1426 70.1562 11.7578L72.3535 8.08105H74.2578V25ZM69.2773 16.5039C69.2773 16.0645 69.2529 15.6006 69.2041 15.1123C69.165 14.624 69.0918 14.1406 68.9844 13.6621C68.877 13.1836 68.7256 12.7295 68.5303 12.2998C68.3447 11.8604 68.1006 11.4746 67.7979 11.1426C67.5049 10.8008 67.1484 10.5322 66.7285 10.3369C66.3086 10.1416 65.8203 10.0439 65.2637 10.0439C64.707 10.0439 64.2236 10.1465 63.8135 10.3516C63.4033 10.5469 63.0518 10.8154 62.7588 11.1572C62.4658 11.4893 62.2217 11.875 62.0264 12.3145C61.8408 12.7539 61.6943 13.2129 61.5869 13.6914C61.4795 14.1699 61.4014 14.6533 61.3525 15.1416C61.3135 15.6201 61.2939 16.0742 61.2939 16.5039C61.2939 16.9336 61.3135 17.3926 61.3525 17.8809C61.4014 18.3691 61.4795 18.8525 61.5869 19.3311C61.6943 19.8096 61.8408 20.2686 62.0264 20.708C62.2217 21.1475 62.4658 21.5381 62.7588 21.8799C63.0518 22.2119 63.4033 22.4805 63.8135 22.6855C64.2236 22.8809 64.707 22.9785 65.2637 22.9785C65.7715 22.9785 66.2207 22.876 66.6113 22.6709C67.0117 22.4561 67.3584 22.1729 67.6514 21.8213C67.9541 21.4697 68.208 21.0693 68.4131 20.6201C68.6182 20.1709 68.7842 19.707 68.9111 19.2285C69.0381 18.75 69.1309 18.2764 69.1895 17.8076C69.248 17.3291 69.2773 16.8945 69.2773 16.5039Z" fill="white"/>
<path d="M92.7881 9.5752L90.0049 14.1895C89.8877 13.7988 89.7363 13.3594 89.5508 12.8711C89.3652 12.3828 89.1357 11.9287 88.8623 11.5088C88.5889 11.0791 88.2617 10.7227 87.8809 10.4395C87.5 10.1465 87.0605 10 86.5625 10C86.1035 10 85.7031 10.1172 85.3613 10.3516C85.0293 10.5859 84.7461 10.8936 84.5117 11.2744C84.2773 11.6455 84.082 12.0703 83.9258 12.5488C83.7793 13.0176 83.6621 13.4961 83.5742 13.9844C83.4961 14.4629 83.4424 14.9268 83.4131 15.376C83.3838 15.8154 83.3691 16.1963 83.3691 16.5186V25H78.4033V8.08105H80.3076L82.3145 12.0215C82.5879 11.3867 82.9004 10.8057 83.252 10.2783C83.6035 9.74121 84.0088 9.28223 84.4678 8.90137C84.9268 8.51074 85.4443 8.20801 86.0205 7.99316C86.6064 7.77832 87.2656 7.6709 87.998 7.6709C88.3789 7.6709 88.8037 7.70508 89.2725 7.77344C89.7412 7.83203 90.2002 7.93945 90.6494 8.0957C91.0986 8.24219 91.5137 8.4375 91.8945 8.68164C92.2754 8.92578 92.5732 9.22363 92.7881 9.5752Z" fill="white"/>
<path d="M101.24 25H96.2744V10.0439H93.1982V8.08105H96.2744V1.85547H101.24V8.08105H106.367V10.0439H101.24V25Z" fill="white"/>
<path d="M137.568 14.9072V15.1855C137.549 16.0059 137.461 16.8555 137.305 17.7344C137.158 18.6133 136.948 19.4922 136.675 20.3711C136.401 21.25 136.074 22.1191 135.693 22.9785C135.312 23.8379 134.883 24.6582 134.404 25.4395C133.936 26.2305 133.428 26.9678 132.881 27.6514C132.334 28.3447 131.758 28.9551 131.152 29.4824L128.97 28.2227C129.312 27.6465 129.619 27.0166 129.893 26.333C130.176 25.6592 130.43 24.9512 130.654 24.209C130.879 23.4668 131.069 22.7051 131.226 21.9238C131.392 21.1426 131.528 20.3662 131.636 19.5947C131.743 18.8232 131.821 18.0664 131.87 17.3242C131.929 16.5723 131.958 15.8594 131.958 15.1855C131.958 14.6582 131.953 14.0625 131.943 13.3984C131.943 12.7246 131.904 12.041 131.826 11.3477C131.758 10.6543 131.641 9.98047 131.475 9.32617C131.309 8.66211 131.06 8.07129 130.728 7.55371C130.405 7.03613 129.985 6.62109 129.468 6.30859C128.96 5.99609 128.325 5.83984 127.563 5.83984C126.89 5.83984 126.309 5.95703 125.82 6.19141C125.342 6.41602 124.932 6.72363 124.59 7.11426C124.258 7.49512 123.989 7.93945 123.784 8.44727C123.589 8.95508 123.433 9.49219 123.315 10.0586C123.208 10.6152 123.135 11.1816 123.096 11.7578C123.066 12.3242 123.052 12.8613 123.052 13.3691V17.4561H129.365V19.873H123.052V25H117.236V14.2773C117.236 12.7441 117.48 11.3184 117.969 10C118.457 8.68164 119.146 7.53906 120.034 6.57227C120.933 5.5957 122.007 4.83398 123.257 4.28711C124.517 3.73047 125.918 3.45215 127.461 3.45215C128.506 3.45215 129.482 3.60352 130.391 3.90625C131.309 4.19922 132.144 4.60938 132.896 5.13672C133.647 5.6543 134.316 6.27441 134.902 6.99707C135.498 7.70996 135.991 8.49121 136.382 9.34082C136.782 10.1904 137.085 11.0889 137.29 12.0361C137.495 12.9834 137.588 13.9404 137.568 14.9072Z" fill="white"/>
<path d="M157.93 22.9639C157.93 24.3115 157.729 25.5811 157.329 26.7725C156.929 27.9639 156.348 29.0039 155.586 29.8926C154.824 30.791 153.887 31.499 152.773 32.0166C151.67 32.5439 150.41 32.8076 148.994 32.8076C148.213 32.8076 147.422 32.7197 146.621 32.5439C145.83 32.3682 145.078 32.0947 144.365 31.7236C143.662 31.3623 143.027 30.8984 142.461 30.332C141.904 29.7754 141.465 29.1162 141.143 28.3545L143.281 27.5488C143.467 28.0273 143.706 28.4668 143.999 28.8672C144.302 29.2676 144.648 29.6094 145.039 29.8926C145.43 30.1855 145.859 30.4102 146.328 30.5664C146.797 30.7324 147.29 30.8154 147.808 30.8154C148.784 30.8154 149.6 30.6152 150.254 30.2148C150.918 29.8145 151.45 29.292 151.851 28.6475C152.251 28.0029 152.539 27.2705 152.715 26.4502C152.891 25.6396 152.979 24.8145 152.979 23.9746V22.9785C152.393 23.7793 151.685 24.375 150.854 24.7656C150.034 25.1465 149.131 25.3369 148.145 25.3369C146.855 25.3369 145.703 25.1074 144.688 24.6484C143.672 24.1895 142.812 23.5645 142.109 22.7734C141.406 21.9727 140.869 21.0352 140.498 19.9609C140.127 18.8867 139.941 17.7344 139.941 16.5039C139.941 15.2734 140.127 14.1211 140.498 13.0469C140.869 11.9727 141.406 11.04 142.109 10.249C142.812 9.44824 143.672 8.81836 144.688 8.35938C145.703 7.90039 146.855 7.6709 148.145 7.6709C148.799 7.6709 149.419 7.76855 150.005 7.96387C150.601 8.15918 151.143 8.4375 151.631 8.79883C152.129 9.15039 152.563 9.58008 152.935 10.0879C153.315 10.5859 153.613 11.1426 153.828 11.7578L156.025 8.08105H157.93V22.9639ZM152.949 16.5039C152.949 16.0645 152.925 15.6006 152.876 15.1123C152.837 14.624 152.764 14.1406 152.656 13.6621C152.549 13.1836 152.397 12.7295 152.202 12.2998C152.017 11.8604 151.772 11.4746 151.47 11.1426C151.177 10.8008 150.82 10.5322 150.4 10.3369C149.98 10.1416 149.492 10.0439 148.936 10.0439C148.379 10.0439 147.896 10.1465 147.485 10.3516C147.075 10.5469 146.724 10.8154 146.431 11.1572C146.138 11.4893 145.894 11.875 145.698 12.3145C145.513 12.7539 145.366 13.2129 145.259 13.6914C145.151 14.1699 145.073 14.6533 145.024 15.1416C144.985 15.6201 144.966 16.0742 144.966 16.5039C144.966 16.9336 144.985 17.3926 145.024 17.8809C145.073 18.3691 145.151 18.8525 145.259 19.3311C145.366 19.8096 145.513 20.2686 145.698 20.708C145.894 21.1475 146.138 21.5381 146.431 21.8799C146.724 22.2119 147.075 22.4805 147.485 22.6855C147.896 22.8809 148.379 22.9785 148.936 22.9785C149.443 22.9785 149.893 22.876 150.283 22.6709C150.684 22.4561 151.03 22.1729 151.323 21.8213C151.626 21.4697 151.88 21.0693 152.085 20.6201C152.29 20.1709 152.456 19.707 152.583 19.2285C152.71 18.75 152.803 18.2764 152.861 17.8076C152.92 17.3291 152.949 16.8945 152.949 16.5039Z" fill="white"/>
<path d="M176.46 9.5752L173.677 14.1895C173.56 13.7988 173.408 13.3594 173.223 12.8711C173.037 12.3828 172.808 11.9287 172.534 11.5088C172.261 11.0791 171.934 10.7227 171.553 10.4395C171.172 10.1465 170.732 10 170.234 10C169.775 10 169.375 10.1172 169.033 10.3516C168.701 10.5859 168.418 10.8936 168.184 11.2744C167.949 11.6455 167.754 12.0703 167.598 12.5488C167.451 13.0176 167.334 13.4961 167.246 13.9844C167.168 14.4629 167.114 14.9268 167.085 15.376C167.056 15.8154 167.041 16.1963 167.041 16.5186V25H162.075V8.08105H163.979L165.986 12.0215C166.26 11.3867 166.572 10.8057 166.924 10.2783C167.275 9.74121 167.681 9.28223 168.14 8.90137C168.599 8.51074 169.116 8.20801 169.692 7.99316C170.278 7.77832 170.938 7.6709 171.67 7.6709C172.051 7.6709 172.476 7.70508 172.944 7.77344C173.413 7.83203 173.872 7.93945 174.321 8.0957C174.771 8.24219 175.186 8.4375 175.566 8.68164C175.947 8.92578 176.245 9.22363 176.46 9.5752Z" fill="white"/>
<path d="M195.972 16.5039C195.972 17.3828 195.854 18.208 195.62 18.9795C195.386 19.751 195.059 20.4639 194.639 21.1182C194.229 21.7725 193.73 22.3633 193.145 22.8906C192.559 23.4082 191.914 23.8477 191.211 24.209C190.518 24.5703 189.771 24.8486 188.97 25.0439C188.179 25.2393 187.363 25.3369 186.523 25.3369C185.684 25.3369 184.868 25.2393 184.077 25.0439C183.286 24.8486 182.539 24.5703 181.836 24.209C181.143 23.8477 180.503 23.4082 179.917 22.8906C179.331 22.3633 178.828 21.7725 178.408 21.1182C177.998 20.4639 177.676 19.751 177.441 18.9795C177.207 18.1982 177.09 17.373 177.09 16.5039C177.09 15.6348 177.207 14.8145 177.441 14.043C177.676 13.2617 177.998 12.5439 178.408 11.8896C178.828 11.2354 179.331 10.6494 179.917 10.1318C180.503 9.60449 181.143 9.16016 181.836 8.79883C182.539 8.4375 183.286 8.15918 184.077 7.96387C184.868 7.76855 185.684 7.6709 186.523 7.6709C187.363 7.6709 188.179 7.76855 188.97 7.96387C189.771 8.15918 190.518 8.4375 191.211 8.79883C191.914 9.16016 192.559 9.60449 193.145 10.1318C193.73 10.6494 194.229 11.2354 194.639 11.8896C195.059 12.5439 195.386 13.2617 195.62 14.043C195.854 14.8145 195.972 15.6348 195.972 16.5039ZM190.933 16.5039C190.933 16.0352 190.903 15.542 190.845 15.0244C190.796 14.4971 190.708 13.9844 190.581 13.4863C190.454 12.9785 190.278 12.4951 190.054 12.0361C189.839 11.5674 189.57 11.1621 189.248 10.8203C188.926 10.4688 188.54 10.1904 188.091 9.98535C187.642 9.77051 187.119 9.66309 186.523 9.66309C185.957 9.66309 185.454 9.77051 185.015 9.98535C184.575 10.2002 184.189 10.4883 183.857 10.8496C183.535 11.2012 183.262 11.6113 183.037 12.0801C182.822 12.5488 182.646 13.0371 182.51 13.5449C182.373 14.043 182.275 14.5508 182.217 15.0684C182.158 15.5762 182.129 16.0547 182.129 16.5039C182.129 16.9531 182.158 17.4365 182.217 17.9541C182.275 18.4619 182.373 18.9697 182.51 19.4775C182.646 19.9854 182.822 20.4736 183.037 20.9424C183.262 21.4014 183.535 21.8115 183.857 22.1729C184.189 22.5244 184.575 22.8076 185.015 23.0225C185.454 23.2373 185.957 23.3447 186.523 23.3447C187.109 23.3447 187.627 23.2422 188.076 23.0371C188.525 22.8223 188.911 22.5391 189.233 22.1875C189.565 21.8359 189.839 21.4307 190.054 20.9717C190.269 20.5127 190.439 20.0293 190.566 19.5215C190.703 19.0137 190.796 18.501 190.845 17.9834C190.903 17.4658 190.933 16.9727 190.933 16.5039Z" fill="white"/>
<path d="M203.589 22.8027C203.589 23.1738 203.521 23.5254 203.384 23.8574C203.247 24.1797 203.057 24.4629 202.812 24.707C202.568 24.9414 202.285 25.127 201.963 25.2637C201.641 25.4102 201.294 25.4834 200.923 25.4834C200.552 25.4834 200.205 25.4102 199.883 25.2637C199.561 25.127 199.277 24.9414 199.033 24.707C198.789 24.4629 198.599 24.1797 198.462 23.8574C198.325 23.5254 198.257 23.1738 198.257 22.8027C198.257 22.4414 198.325 22.0996 198.462 21.7773C198.599 21.4453 198.789 21.1621 199.033 20.9277C199.277 20.6836 199.561 20.4932 199.883 20.3564C200.205 20.21 200.552 20.1367 200.923 20.1367C201.294 20.1367 201.641 20.21 201.963 20.3564C202.285 20.4932 202.568 20.6836 202.812 20.9277C203.057 21.1621 203.247 21.4453 203.384 21.7773C203.521 22.0996 203.589 22.4414 203.589 22.8027Z" fill="white"/>
<path d="M24.6729 18.5547C24.6729 19.4629 24.5557 20.2637 24.3213 20.957C24.0967 21.6504 23.7744 22.251 23.3545 22.7588C22.9443 23.2666 22.4561 23.6914 21.8896 24.0332C21.3232 24.375 20.7031 24.6484 20.0293 24.8535C19.3652 25.0586 18.6572 25.2051 17.9053 25.293C17.1631 25.3809 16.4062 25.4248 15.6348 25.4248C14.6191 25.4248 13.6816 25.3467 12.8223 25.1904C11.9629 25.0439 11.1523 24.8096 10.3906 24.4873C9.63867 24.1553 8.91113 23.7305 8.20801 23.2129C7.51465 22.6953 6.82129 22.0654 6.12793 21.3232L9.11621 18.291C9.38965 18.9648 9.76562 19.5898 10.2441 20.166C10.7227 20.7324 11.2451 21.2207 11.8115 21.6309C12.3877 22.041 12.9834 22.3633 13.5986 22.5977C14.2139 22.832 14.7949 22.9492 15.3418 22.9492C15.9863 22.9492 16.5918 22.9053 17.1582 22.8174C17.7246 22.7197 18.2178 22.5635 18.6377 22.3486C19.0576 22.1338 19.3848 21.8506 19.6191 21.499C19.8633 21.1377 19.9854 20.6885 19.9854 20.1514C19.9854 19.7412 19.8926 19.3896 19.707 19.0967C19.5215 18.8037 19.2773 18.5547 18.9746 18.3496C18.6816 18.1348 18.3447 17.9541 17.9639 17.8076C17.583 17.6611 17.1924 17.5391 16.792 17.4414C16.4014 17.334 16.0156 17.2412 15.6348 17.1631C15.2539 17.0752 14.917 16.9873 14.624 16.8994C14.0479 16.7334 13.4473 16.5576 12.8223 16.3721C12.1973 16.1768 11.582 15.957 10.9766 15.7129C10.3711 15.4688 9.79492 15.1904 9.24805 14.8779C8.71094 14.5557 8.2373 14.1797 7.82715 13.75C7.41699 13.3105 7.08984 12.8076 6.8457 12.2412C6.60156 11.665 6.47949 11.0059 6.47949 10.2637C6.47949 9.375 6.58691 8.58887 6.80176 7.90527C7.02637 7.21191 7.33887 6.61133 7.73926 6.10352C8.13965 5.5957 8.61328 5.1709 9.16016 4.8291C9.70703 4.47754 10.3076 4.19922 10.9619 3.99414C11.6162 3.7793 12.3096 3.62793 13.042 3.54004C13.7842 3.44238 14.541 3.39355 15.3125 3.39355C16.3672 3.39355 17.3242 3.49121 18.1836 3.68652C19.0527 3.88184 19.8535 4.16016 20.5859 4.52148C21.3184 4.88281 21.9873 5.31738 22.5928 5.8252C23.208 6.32324 23.7842 6.87988 24.3213 7.49512L21.333 10.5273C21.0986 9.82422 20.7715 9.18945 20.3516 8.62305C19.9414 8.05664 19.4824 7.57324 18.9746 7.17285C18.4668 6.7627 17.9346 6.4502 17.3779 6.23535C16.8213 6.01074 16.2842 5.89844 15.7666 5.89844C15.0928 5.89844 14.4727 5.94727 13.9062 6.04492C13.3398 6.13281 12.8516 6.28418 12.4414 6.49902C12.041 6.7041 11.7285 6.9873 11.5039 7.34863C11.2793 7.7002 11.167 8.13965 11.167 8.66699C11.167 9.08691 11.25 9.44336 11.416 9.73633C11.582 10.0293 11.8018 10.2783 12.0752 10.4834C12.3584 10.6885 12.6758 10.8594 13.0273 10.9961C13.3789 11.123 13.7402 11.2354 14.1113 11.333C14.4922 11.4307 14.8633 11.5186 15.2246 11.5967C15.5957 11.665 15.9326 11.7432 16.2354 11.8311C16.8213 11.9971 17.4365 12.1729 18.0811 12.3584C18.7256 12.5439 19.3604 12.7637 19.9854 13.0176C20.6104 13.2617 21.2061 13.5449 21.7725 13.8672C22.3389 14.1895 22.8369 14.5752 23.2666 15.0244C23.6963 15.4639 24.0381 15.9766 24.292 16.5625C24.5459 17.1387 24.6729 17.8027 24.6729 18.5547Z" stroke="black" stroke-width="2" mask="url(#path-1-outside-1_3_447)"/>
<path d="M53.9258 15.127C53.9258 16.2891 53.7891 17.5 53.5156 18.7598C53.2422 20.0195 52.8564 21.25 52.3584 22.4512C51.8701 23.6426 51.2793 24.7705 50.5859 25.835C49.8926 26.8994 49.1211 27.8223 48.2715 28.6035L46.4111 27.5928C46.6943 27.085 46.9531 26.5137 47.1875 25.8789C47.4219 25.2441 47.6367 24.5752 47.832 23.8721C48.0273 23.1689 48.1982 22.4463 48.3447 21.7041C48.4912 20.9619 48.6133 20.2246 48.7109 19.4922C48.8184 18.75 48.8965 18.0322 48.9453 17.3389C48.9941 16.6455 49.0186 15.9961 49.0186 15.3906C49.0186 15.0488 49.0088 14.6777 48.9893 14.2773C48.9697 13.877 48.9258 13.4766 48.8574 13.0762C48.7988 12.6758 48.7061 12.2949 48.5791 11.9336C48.4521 11.5625 48.2764 11.2354 48.0518 10.9521C47.8369 10.6592 47.5635 10.4297 47.2314 10.2637C46.9092 10.0879 46.5186 10 46.0596 10C45.6104 10 45.2246 10.1221 44.9023 10.3662C44.5898 10.6006 44.3213 10.9082 44.0967 11.2891C43.8721 11.6699 43.6914 12.0996 43.5547 12.5781C43.4277 13.0566 43.3301 13.54 43.2617 14.0283C43.1934 14.5068 43.1445 14.9658 43.1152 15.4053C43.0957 15.8447 43.0859 16.2158 43.0859 16.5186V25H38.1494V17.1191C38.1494 16.7773 38.1543 16.3672 38.1641 15.8887C38.1738 15.4004 38.1592 14.8926 38.1201 14.3652C38.0908 13.8379 38.0273 13.3154 37.9297 12.7979C37.8418 12.2705 37.6953 11.8018 37.4902 11.3916C37.2949 10.9814 37.0264 10.6494 36.6846 10.3955C36.3428 10.1318 35.9131 10 35.3955 10C34.9561 10 34.585 10.1221 34.2822 10.3662C33.9893 10.6104 33.7402 10.9277 33.5352 11.3184C33.3398 11.6992 33.1836 12.1338 33.0664 12.6221C32.959 13.1006 32.876 13.584 32.8174 14.0723C32.7686 14.5508 32.7393 15.0098 32.7295 15.4492C32.7197 15.8789 32.7148 16.2354 32.7148 16.5186V25H27.749V8.08105H29.6533L31.4697 12.0215C31.8799 10.6543 32.5244 9.58984 33.4033 8.82812C34.292 8.05664 35.4688 7.6709 36.9336 7.6709C38.252 7.6709 39.3457 7.94434 40.2148 8.49121C41.084 9.03809 41.7676 9.92676 42.2656 11.1572C42.5488 10.6201 42.8613 10.1367 43.2031 9.70703C43.5547 9.27734 43.9404 8.91113 44.3604 8.6084C44.79 8.30566 45.2637 8.07617 45.7812 7.91992C46.2988 7.75391 46.8701 7.6709 47.4951 7.6709C48.6475 7.6709 49.6289 7.86133 50.4395 8.24219C51.2598 8.61328 51.9287 9.13086 52.4463 9.79492C52.9639 10.459 53.3398 11.25 53.5742 12.168C53.8086 13.0762 53.9258 14.0625 53.9258 15.127Z" stroke="black" stroke-width="2" mask="url(#path-1-outside-1_3_447)"/>
<path d="M74.2578 25H69.3066V22.9785C68.7207 23.7793 68.0127 24.375 67.1826 24.7656C66.3623 25.1465 65.459 25.3369 64.4727 25.3369C63.1836 25.3369 62.0312 25.1074 61.0156 24.6484C60 24.1895 59.1406 23.5645 58.4375 22.7734C57.7344 21.9727 57.1973 21.0352 56.8262 19.9609C56.4551 18.8867 56.2695 17.7344 56.2695 16.5039C56.2695 15.2734 56.4551 14.1211 56.8262 13.0469C57.1973 11.9727 57.7344 11.04 58.4375 10.249C59.1406 9.44824 60 8.81836 61.0156 8.35938C62.0312 7.90039 63.1836 7.6709 64.4727 7.6709C65.127 7.6709 65.7471 7.76855 66.333 7.96387C66.9287 8.15918 67.4707 8.4375 67.959 8.79883C68.457 9.15039 68.8916 9.58008 69.2627 10.0879C69.6436 10.5859 69.9414 11.1426 70.1562 11.7578L72.3535 8.08105H74.2578V25ZM69.2773 16.5039C69.2773 16.0645 69.2529 15.6006 69.2041 15.1123C69.165 14.624 69.0918 14.1406 68.9844 13.6621C68.877 13.1836 68.7256 12.7295 68.5303 12.2998C68.3447 11.8604 68.1006 11.4746 67.7979 11.1426C67.5049 10.8008 67.1484 10.5322 66.7285 10.3369C66.3086 10.1416 65.8203 10.0439 65.2637 10.0439C64.707 10.0439 64.2236 10.1465 63.8135 10.3516C63.4033 10.5469 63.0518 10.8154 62.7588 11.1572C62.4658 11.4893 62.2217 11.875 62.0264 12.3145C61.8408 12.7539 61.6943 13.2129 61.5869 13.6914C61.4795 14.1699 61.4014 14.6533 61.3525 15.1416C61.3135 15.6201 61.2939 16.0742 61.2939 16.5039C61.2939 16.9336 61.3135 17.3926 61.3525 17.8809C61.4014 18.3691 61.4795 18.8525 61.5869 19.3311C61.6943 19.8096 61.8408 20.2686 62.0264 20.708C62.2217 21.1475 62.4658 21.5381 62.7588 21.8799C63.0518 22.2119 63.4033 22.4805 63.8135 22.6855C64.2236 22.8809 64.707 22.9785 65.2637 22.9785C65.7715 22.9785 66.2207 22.876 66.6113 22.6709C67.0117 22.4561 67.3584 22.1729 67.6514 21.8213C67.9541 21.4697 68.208 21.0693 68.4131 20.6201C68.6182 20.1709 68.7842 19.707 68.9111 19.2285C69.0381 18.75 69.1309 18.2764 69.1895 17.8076C69.248 17.3291 69.2773 16.8945 69.2773 16.5039Z" stroke="black" stroke-width="2" mask="url(#path-1-outside-1_3_447)"/>
<path d="M92.7881 9.5752L90.0049 14.1895C89.8877 13.7988 89.7363 13.3594 89.5508 12.8711C89.3652 12.3828 89.1357 11.9287 88.8623 11.5088C88.5889 11.0791 88.2617 10.7227 87.8809 10.4395C87.5 10.1465 87.0605 10 86.5625 10C86.1035 10 85.7031 10.1172 85.3613 10.3516C85.0293 10.5859 84.7461 10.8936 84.5117 11.2744C84.2773 11.6455 84.082 12.0703 83.9258 12.5488C83.7793 13.0176 83.6621 13.4961 83.5742 13.9844C83.4961 14.4629 83.4424 14.9268 83.4131 15.376C83.3838 15.8154 83.3691 16.1963 83.3691 16.5186V25H78.4033V8.08105H80.3076L82.3145 12.0215C82.5879 11.3867 82.9004 10.8057 83.252 10.2783C83.6035 9.74121 84.0088 9.28223 84.4678 8.90137C84.9268 8.51074 85.4443 8.20801 86.0205 7.99316C86.6064 7.77832 87.2656 7.6709 87.998 7.6709C88.3789 7.6709 88.8037 7.70508 89.2725 7.77344C89.7412 7.83203 90.2002 7.93945 90.6494 8.0957C91.0986 8.24219 91.5137 8.4375 91.8945 8.68164C92.2754 8.92578 92.5732 9.22363 92.7881 9.5752Z" stroke="black" stroke-width="2" mask="url(#path-1-outside-1_3_447)"/>
<path d="M101.24 25H96.2744V10.0439H93.1982V8.08105H96.2744V1.85547H101.24V8.08105H106.367V10.0439H101.24V25Z" stroke="black" stroke-width="2" mask="url(#path-1-outside-1_3_447)"/>
<path d="M137.568 14.9072V15.1855C137.549 16.0059 137.461 16.8555 137.305 17.7344C137.158 18.6133 136.948 19.4922 136.675 20.3711C136.401 21.25 136.074 22.1191 135.693 22.9785C135.312 23.8379 134.883 24.6582 134.404 25.4395C133.936 26.2305 133.428 26.9678 132.881 27.6514C132.334 28.3447 131.758 28.9551 131.152 29.4824L128.97 28.2227C129.312 27.6465 129.619 27.0166 129.893 26.333C130.176 25.6592 130.43 24.9512 130.654 24.209C130.879 23.4668 131.069 22.7051 131.226 21.9238C131.392 21.1426 131.528 20.3662 131.636 19.5947C131.743 18.8232 131.821 18.0664 131.87 17.3242C131.929 16.5723 131.958 15.8594 131.958 15.1855C131.958 14.6582 131.953 14.0625 131.943 13.3984C131.943 12.7246 131.904 12.041 131.826 11.3477C131.758 10.6543 131.641 9.98047 131.475 9.32617C131.309 8.66211 131.06 8.07129 130.728 7.55371C130.405 7.03613 129.985 6.62109 129.468 6.30859C128.96 5.99609 128.325 5.83984 127.563 5.83984C126.89 5.83984 126.309 5.95703 125.82 6.19141C125.342 6.41602 124.932 6.72363 124.59 7.11426C124.258 7.49512 123.989 7.93945 123.784 8.44727C123.589 8.95508 123.433 9.49219 123.315 10.0586C123.208 10.6152 123.135 11.1816 123.096 11.7578C123.066 12.3242 123.052 12.8613 123.052 13.3691V17.4561H129.365V19.873H123.052V25H117.236V14.2773C117.236 12.7441 117.48 11.3184 117.969 10C118.457 8.68164 119.146 7.53906 120.034 6.57227C120.933 5.5957 122.007 4.83398 123.257 4.28711C124.517 3.73047 125.918 3.45215 127.461 3.45215C128.506 3.45215 129.482 3.60352 130.391 3.90625C131.309 4.19922 132.144 4.60938 132.896 5.13672C133.647 5.6543 134.316 6.27441 134.902 6.99707C135.498 7.70996 135.991 8.49121 136.382 9.34082C136.782 10.1904 137.085 11.0889 137.29 12.0361C137.495 12.9834 137.588 13.9404 137.568 14.9072Z" stroke="black" stroke-width="2" mask="url(#path-1-outside-1_3_447)"/>
<path d="M157.93 22.9639C157.93 24.3115 157.729 25.5811 157.329 26.7725C156.929 27.9639 156.348 29.0039 155.586 29.8926C154.824 30.791 153.887 31.499 152.773 32.0166C151.67 32.5439 150.41 32.8076 148.994 32.8076C148.213 32.8076 147.422 32.7197 146.621 32.5439C145.83 32.3682 145.078 32.0947 144.365 31.7236C143.662 31.3623 143.027 30.8984 142.461 30.332C141.904 29.7754 141.465 29.1162 141.143 28.3545L143.281 27.5488C143.467 28.0273 143.706 28.4668 143.999 28.8672C144.302 29.2676 144.648 29.6094 145.039 29.8926C145.43 30.1855 145.859 30.4102 146.328 30.5664C146.797 30.7324 147.29 30.8154 147.808 30.8154C148.784 30.8154 149.6 30.6152 150.254 30.2148C150.918 29.8145 151.45 29.292 151.851 28.6475C152.251 28.0029 152.539 27.2705 152.715 26.4502C152.891 25.6396 152.979 24.8145 152.979 23.9746V22.9785C152.393 23.7793 151.685 24.375 150.854 24.7656C150.034 25.1465 149.131 25.3369 148.145 25.3369C146.855 25.3369 145.703 25.1074 144.688 24.6484C143.672 24.1895 142.812 23.5645 142.109 22.7734C141.406 21.9727 140.869 21.0352 140.498 19.9609C140.127 18.8867 139.941 17.7344 139.941 16.5039C139.941 15.2734 140.127 14.1211 140.498 13.0469C140.869 11.9727 141.406 11.04 142.109 10.249C142.812 9.44824 143.672 8.81836 144.688 8.35938C145.703 7.90039 146.855 7.6709 148.145 7.6709C148.799 7.6709 149.419 7.76855 150.005 7.96387C150.601 8.15918 151.143 8.4375 151.631 8.79883C152.129 9.15039 152.563 9.58008 152.935 10.0879C153.315 10.5859 153.613 11.1426 153.828 11.7578L156.025 8.08105H157.93V22.9639ZM152.949 16.5039C152.949 16.0645 152.925 15.6006 152.876 15.1123C152.837 14.624 152.764 14.1406 152.656 13.6621C152.549 13.1836 152.397 12.7295 152.202 12.2998C152.017 11.8604 151.772 11.4746 151.47 11.1426C151.177 10.8008 150.82 10.5322 150.4 10.3369C149.98 10.1416 149.492 10.0439 148.936 10.0439C148.379 10.0439 147.896 10.1465 147.485 10.3516C147.075 10.5469 146.724 10.8154 146.431 11.1572C146.138 11.4893 145.894 11.875 145.698 12.3145C145.513 12.7539 145.366 13.2129 145.259 13.6914C145.151 14.1699 145.073 14.6533 145.024 15.1416C144.985 15.6201 144.966 16.0742 144.966 16.5039C144.966 16.9336 144.985 17.3926 145.024 17.8809C145.073 18.3691 145.151 18.8525 145.259 19.3311C145.366 19.8096 145.513 20.2686 145.698 20.708C145.894 21.1475 146.138 21.5381 146.431 21.8799C146.724 22.2119 147.075 22.4805 147.485 22.6855C147.896 22.8809 148.379 22.9785 148.936 22.9785C149.443 22.9785 149.893 22.876 150.283 22.6709C150.684 22.4561 151.03 22.1729 151.323 21.8213C151.626 21.4697 151.88 21.0693 152.085 20.6201C152.29 20.1709 152.456 19.707 152.583 19.2285C152.71 18.75 152.803 18.2764 152.861 17.8076C152.92 17.3291 152.949 16.8945 152.949 16.5039Z" stroke="black" stroke-width="2" mask="url(#path-1-outside-1_3_447)"/>
<path d="M176.46 9.5752L173.677 14.1895C173.56 13.7988 173.408 13.3594 173.223 12.8711C173.037 12.3828 172.808 11.9287 172.534 11.5088C172.261 11.0791 171.934 10.7227 171.553 10.4395C171.172 10.1465 170.732 10 170.234 10C169.775 10 169.375 10.1172 169.033 10.3516C168.701 10.5859 168.418 10.8936 168.184 11.2744C167.949 11.6455 167.754 12.0703 167.598 12.5488C167.451 13.0176 167.334 13.4961 167.246 13.9844C167.168 14.4629 167.114 14.9268 167.085 15.376C167.056 15.8154 167.041 16.1963 167.041 16.5186V25H162.075V8.08105H163.979L165.986 12.0215C166.26 11.3867 166.572 10.8057 166.924 10.2783C167.275 9.74121 167.681 9.28223 168.14 8.90137C168.599 8.51074 169.116 8.20801 169.692 7.99316C170.278 7.77832 170.938 7.6709 171.67 7.6709C172.051 7.6709 172.476 7.70508 172.944 7.77344C173.413 7.83203 173.872 7.93945 174.321 8.0957C174.771 8.24219 175.186 8.4375 175.566 8.68164C175.947 8.92578 176.245 9.22363 176.46 9.5752Z" stroke="black" stroke-width="2" mask="url(#path-1-outside-1_3_447)"/>
<path d="M195.972 16.5039C195.972 17.3828 195.854 18.208 195.62 18.9795C195.386 19.751 195.059 20.4639 194.639 21.1182C194.229 21.7725 193.73 22.3633 193.145 22.8906C192.559 23.4082 191.914 23.8477 191.211 24.209C190.518 24.5703 189.771 24.8486 188.97 25.0439C188.179 25.2393 187.363 25.3369 186.523 25.3369C185.684 25.3369 184.868 25.2393 184.077 25.0439C183.286 24.8486 182.539 24.5703 181.836 24.209C181.143 23.8477 180.503 23.4082 179.917 22.8906C179.331 22.3633 178.828 21.7725 178.408 21.1182C177.998 20.4639 177.676 19.751 177.441 18.9795C177.207 18.1982 177.09 17.373 177.09 16.5039C177.09 15.6348 177.207 14.8145 177.441 14.043C177.676 13.2617 177.998 12.5439 178.408 11.8896C178.828 11.2354 179.331 10.6494 179.917 10.1318C180.503 9.60449 181.143 9.16016 181.836 8.79883C182.539 8.4375 183.286 8.15918 184.077 7.96387C184.868 7.76855 185.684 7.6709 186.523 7.6709C187.363 7.6709 188.179 7.76855 188.97 7.96387C189.771 8.15918 190.518 8.4375 191.211 8.79883C191.914 9.16016 192.559 9.60449 193.145 10.1318C193.73 10.6494 194.229 11.2354 194.639 11.8896C195.059 12.5439 195.386 13.2617 195.62 14.043C195.854 14.8145 195.972 15.6348 195.972 16.5039ZM190.933 16.5039C190.933 16.0352 190.903 15.542 190.845 15.0244C190.796 14.4971 190.708 13.9844 190.581 13.4863C190.454 12.9785 190.278 12.4951 190.054 12.0361C189.839 11.5674 189.57 11.1621 189.248 10.8203C188.926 10.4688 188.54 10.1904 188.091 9.98535C187.642 9.77051 187.119 9.66309 186.523 9.66309C185.957 9.66309 185.454 9.77051 185.015 9.98535C184.575 10.2002 184.189 10.4883 183.857 10.8496C183.535 11.2012 183.262 11.6113 183.037 12.0801C182.822 12.5488 182.646 13.0371 182.51 13.5449C182.373 14.043 182.275 14.5508 182.217 15.0684C182.158 15.5762 182.129 16.0547 182.129 16.5039C182.129 16.9531 182.158 17.4365 182.217 17.9541C182.275 18.4619 182.373 18.9697 182.51 19.4775C182.646 19.9854 182.822 20.4736 183.037 20.9424C183.262 21.4014 183.535 21.8115 183.857 22.1729C184.189 22.5244 184.575 22.8076 185.015 23.0225C185.454 23.2373 185.957 23.3447 186.523 23.3447C187.109 23.3447 187.627 23.2422 188.076 23.0371C188.525 22.8223 188.911 22.5391 189.233 22.1875C189.565 21.8359 189.839 21.4307 190.054 20.9717C190.269 20.5127 190.439 20.0293 190.566 19.5215C190.703 19.0137 190.796 18.501 190.845 17.9834C190.903 17.4658 190.933 16.9727 190.933 16.5039Z" stroke="black" stroke-width="2" mask="url(#path-1-outside-1_3_447)"/>
<path d="M203.589 22.8027C203.589 23.1738 203.521 23.5254 203.384 23.8574C203.247 24.1797 203.057 24.4629 202.812 24.707C202.568 24.9414 202.285 25.127 201.963 25.2637C201.641 25.4102 201.294 25.4834 200.923 25.4834C200.552 25.4834 200.205 25.4102 199.883 25.2637C199.561 25.127 199.277 24.9414 199.033 24.707C198.789 24.4629 198.599 24.1797 198.462 23.8574C198.325 23.5254 198.257 23.1738 198.257 22.8027C198.257 22.4414 198.325 22.0996 198.462 21.7773C198.599 21.4453 198.789 21.1621 199.033 20.9277C199.277 20.6836 199.561 20.4932 199.883 20.3564C200.205 20.21 200.552 20.1367 200.923 20.1367C201.294 20.1367 201.641 20.21 201.963 20.3564C202.285 20.4932 202.568 20.6836 202.812 20.9277C203.057 21.1621 203.247 21.4453 203.384 21.7773C203.521 22.0996 203.589 22.4414 203.589 22.8027Z" stroke="black" stroke-width="2" mask="url(#path-1-outside-1_3_447)"/>
</g>
<defs>
<filter id="filter0_d_3_447" x="0.742161" y="0.855469" width="207.847" height="40.9521" filterUnits="userSpaceOnUse" color-interpolation-filters="sRGB">
<feFlood flood-opacity="0" result="BackgroundImageFix"/>
<feColorMatrix in="SourceAlpha" type="matrix" values="0 0 0 0 0 0 0 0 0 0 0 0 0 0 0 0 0 0 127 0" result="hardAlpha"/>
<feOffset dy="4"/>
<feGaussianBlur stdDeviation="2"/>
<feComposite in2="hardAlpha" operator="out"/>
<feColorMatrix type="matrix" values="0 0 0 0 0 0 0 0 0 0 0 0 0 0 0 0 0 0 0.25 0"/>
<feBlend mode="normal" in2="BackgroundImageFix" result="effect1_dropShadow_3_447"/>
<feBlend mode="normal" in="SourceGraphic" in2="effect1_dropShadow_3_447" result="shape"/>
</filter>
</defs>
</svg>
